<mxfile host="app.diagrams.net" modified="2023-12-29T14:38:19.209Z" agent="Mozilla/5.0 (Windows NT 10.0; Win64; x64) AppleWebKit/537.36 (KHTML, like Gecko) Chrome/120.0.0.0 Safari/537.36" etag="DdHQsEqyGYPsmV6xtvpL" version="22.1.15" type="device">
  <diagram name="Page-1" id="dJB7iogEzVR1ZG4mJawq">
    <mxGraphModel dx="1434" dy="746" grid="1" gridSize="10" guides="1" tooltips="1" connect="1" arrows="1" fold="1" page="1" pageScale="1" pageWidth="1700" pageHeight="1100" math="0" shadow="0">
      <root>
        <mxCell id="0" />
        <mxCell id="1" parent="0" />
        <mxCell id="Xj3SYaBn1BzhPubmyHaP-45" style="edgeStyle=orthogonalEdgeStyle;rounded=0;orthogonalLoop=1;jettySize=auto;html=1;exitX=0.5;exitY=1;exitDx=0;exitDy=0;entryX=0.5;entryY=0;entryDx=0;entryDy=0;strokeWidth=2;endArrow=diamond;endFill=1;" edge="1" parent="1" source="Xj3SYaBn1BzhPubmyHaP-1" target="Xj3SYaBn1BzhPubmyHaP-43">
          <mxGeometry relative="1" as="geometry" />
        </mxCell>
        <mxCell id="Xj3SYaBn1BzhPubmyHaP-1" value="&lt;p style=&quot;margin:0px;margin-top:4px;text-align:center;&quot;&gt;&lt;b&gt;ParkingLot&lt;/b&gt;&lt;/p&gt;&lt;hr size=&quot;1&quot;&gt;&lt;p style=&quot;margin:0px;margin-left:4px;&quot;&gt;+parkingFloors: List&amp;lt;ParkingFloors&amp;gt;&lt;/p&gt;&lt;p style=&quot;margin:0px;margin-left:4px;&quot;&gt;+ exitGates: List&amp;lt;ExitGate&amp;gt;&lt;/p&gt;&lt;p style=&quot;border-color: var(--border-color); margin: 0px 0px 0px 4px;&quot;&gt;+ entryGates: List&amp;lt;EntryGate&amp;gt;&lt;/p&gt;&lt;p style=&quot;border-color: var(--border-color); margin: 0px 0px 0px 4px;&quot;&gt;+ tickets: List: List&amp;lt;Ticket&amp;gt;&lt;/p&gt;&lt;p style=&quot;border-color: var(--border-color); margin: 0px 0px 0px 4px;&quot;&gt;+ parkingRate: ParkingRate&lt;/p&gt;&lt;p style=&quot;border-color: var(--border-color); margin: 0px 0px 0px 4px;&quot;&gt;+ paymentCenter: PaymentCenter&lt;/p&gt;&lt;p style=&quot;border-color: var(--border-color); margin: 0px 0px 0px 4px;&quot;&gt;+address: Address&lt;/p&gt;&lt;p style=&quot;border-color: var(--border-color); margin: 0px 0px 0px 4px;&quot;&gt;+ parkingLotID : String&lt;/p&gt;&lt;p style=&quot;border-color: var(--border-color); margin: 0px 0px 0px 4px;&quot;&gt;&lt;br&gt;&lt;/p&gt;&lt;p style=&quot;border-color: var(--border-color); margin: 0px 0px 0px 4px;&quot;&gt;&lt;br style=&quot;border-color: var(--border-color);&quot;&gt;&lt;/p&gt;&lt;hr size=&quot;1&quot;&gt;&lt;p style=&quot;margin:0px;margin-left:4px;&quot;&gt;+ generateTicket(): Ticket&lt;/p&gt;&lt;p style=&quot;margin:0px;margin-left:4px;&quot;&gt;+ isParkingFull() : boolean&lt;/p&gt;&lt;p style=&quot;margin:0px;margin-left:4px;&quot;&gt;+ addFloors() : void&lt;/p&gt;&lt;p style=&quot;margin:0px;margin-left:4px;&quot;&gt;+&amp;nbsp;addEntryGates() : void&lt;/p&gt;&lt;p style=&quot;margin:0px;margin-left:4px;&quot;&gt;+ addExitGates() : void&lt;/p&gt;&lt;p style=&quot;margin:0px;margin-left:4px;&quot;&gt;&lt;br&gt;&lt;/p&gt;" style="verticalAlign=top;align=left;overflow=fill;fontSize=12;fontFamily=Helvetica;html=1;whiteSpace=wrap;fillColor=#f8cecc;strokeColor=#b85450;" vertex="1" parent="1">
          <mxGeometry x="500" y="300" width="200" height="270" as="geometry" />
        </mxCell>
        <mxCell id="Xj3SYaBn1BzhPubmyHaP-2" value="&lt;p style=&quot;margin:0px;margin-top:4px;text-align:center;&quot;&gt;&lt;b&gt;ParkingFloor&lt;/b&gt;&lt;/p&gt;&lt;hr size=&quot;1&quot;&gt;&lt;p style=&quot;margin:0px;margin-left:4px;&quot;&gt;+ floorId: int&lt;/p&gt;&lt;p style=&quot;margin:0px;margin-left:4px;&quot;&gt;+ spots : List&amp;lt;Spot&amp;gt;&lt;/p&gt;&lt;p style=&quot;margin:0px;margin-left:4px;&quot;&gt;+ availableParkingSpot : int&lt;/p&gt;&lt;p style=&quot;margin:0px;margin-left:4px;&quot;&gt;+ totalParkingSpot: int&lt;/p&gt;&lt;p style=&quot;margin:0px;margin-left:4px;&quot;&gt;+occupiedParkingSpots: int&lt;/p&gt;&lt;hr size=&quot;1&quot;&gt;&lt;p style=&quot;margin:0px;margin-left:4px;&quot;&gt;+ getAvailableSpotFor(): Spot&lt;/p&gt;&lt;p style=&quot;margin:0px;margin-left:4px;&quot;&gt;+ parkVehicle() : void\&lt;/p&gt;&lt;p style=&quot;margin:0px;margin-left:4px;&quot;&gt;+ addSpot() : void&lt;/p&gt;" style="verticalAlign=top;align=left;overflow=fill;fontSize=12;fontFamily=Helvetica;html=1;whiteSpace=wrap;fillColor=#dae8fc;strokeColor=#6c8ebf;" vertex="1" parent="1">
          <mxGeometry x="800" y="350" width="170" height="190" as="geometry" />
        </mxCell>
        <mxCell id="Xj3SYaBn1BzhPubmyHaP-4" value="1" style="text;html=1;align=center;verticalAlign=middle;resizable=0;points=[];autosize=1;strokeColor=none;fillColor=none;" vertex="1" parent="1">
          <mxGeometry x="700" y="400" width="30" height="30" as="geometry" />
        </mxCell>
        <mxCell id="Xj3SYaBn1BzhPubmyHaP-6" value="*" style="text;html=1;align=center;verticalAlign=middle;resizable=0;points=[];autosize=1;strokeColor=none;fillColor=none;" vertex="1" parent="1">
          <mxGeometry x="770" y="400" width="30" height="30" as="geometry" />
        </mxCell>
        <mxCell id="Xj3SYaBn1BzhPubmyHaP-23" style="edgeStyle=orthogonalEdgeStyle;rounded=0;orthogonalLoop=1;jettySize=auto;html=1;entryX=1;entryY=0.5;entryDx=0;entryDy=0;strokeWidth=2;endArrow=diamond;endFill=1;" edge="1" parent="1" source="Xj3SYaBn1BzhPubmyHaP-7" target="Xj3SYaBn1BzhPubmyHaP-15">
          <mxGeometry relative="1" as="geometry">
            <Array as="points">
              <mxPoint x="720" y="170" />
              <mxPoint x="720" y="170" />
            </Array>
          </mxGeometry>
        </mxCell>
        <mxCell id="Xj3SYaBn1BzhPubmyHaP-7" value="&lt;p style=&quot;margin:0px;margin-top:4px;text-align:center;&quot;&gt;&lt;b&gt;Spot&lt;/b&gt;&lt;/p&gt;&lt;hr size=&quot;1&quot;&gt;+ vehicle: Vehicle&lt;br&gt;+ isFree : boolean&lt;br&gt;+ spotId : String&lt;br&gt;+ spotType : SpotType&lt;br&gt;&lt;div style=&quot;height:2px;&quot;&gt;&lt;/div&gt;" style="verticalAlign=top;align=left;overflow=fill;fontSize=12;fontFamily=Helvetica;html=1;whiteSpace=wrap;glass=0;shadow=0;rounded=0;fillColor=#E8BB9E;strokeColor=#82b366;" vertex="1" parent="1">
          <mxGeometry x="800" y="110" width="140" height="110" as="geometry" />
        </mxCell>
        <mxCell id="Xj3SYaBn1BzhPubmyHaP-8" style="edgeStyle=orthogonalEdgeStyle;rounded=0;orthogonalLoop=1;jettySize=auto;html=1;startArrow=none;startFill=0;endArrow=diamond;endFill=1;strokeWidth=2;" edge="1" parent="1" source="Xj3SYaBn1BzhPubmyHaP-7">
          <mxGeometry relative="1" as="geometry">
            <mxPoint x="870" y="350" as="targetPoint" />
          </mxGeometry>
        </mxCell>
        <mxCell id="Xj3SYaBn1BzhPubmyHaP-11" style="edgeStyle=orthogonalEdgeStyle;rounded=0;orthogonalLoop=1;jettySize=auto;html=1;exitX=1;exitY=0.5;exitDx=0;exitDy=0;endArrow=diamond;endFill=1;strokeWidth=2;" edge="1" parent="1" source="Xj3SYaBn1BzhPubmyHaP-1">
          <mxGeometry relative="1" as="geometry">
            <mxPoint x="800" y="435" as="targetPoint" />
          </mxGeometry>
        </mxCell>
        <mxCell id="Xj3SYaBn1BzhPubmyHaP-13" style="edgeStyle=orthogonalEdgeStyle;rounded=0;orthogonalLoop=1;jettySize=auto;html=1;entryX=0.5;entryY=0;entryDx=0;entryDy=0;endArrow=diamond;endFill=1;strokeWidth=2;curved=0;strokeColor=default;" edge="1" parent="1" source="Xj3SYaBn1BzhPubmyHaP-12" target="Xj3SYaBn1BzhPubmyHaP-7">
          <mxGeometry relative="1" as="geometry">
            <Array as="points">
              <mxPoint x="870" y="90" />
            </Array>
          </mxGeometry>
        </mxCell>
        <mxCell id="Xj3SYaBn1BzhPubmyHaP-12" value="&lt;p style=&quot;margin:0px;margin-top:4px;text-align:center;&quot;&gt;&lt;b&gt;Vehicle&lt;/b&gt;&lt;/p&gt;&lt;hr size=&quot;1&quot;&gt;+ vehicleNumber: String&lt;br&gt;+ vehicleId : String&lt;br&gt;+ vehicleType : VehicleType&lt;br&gt;&lt;div style=&quot;height:2px;&quot;&gt;&lt;/div&gt;" style="verticalAlign=top;align=left;overflow=fill;fontSize=12;fontFamily=Helvetica;html=1;whiteSpace=wrap;fillColor=#f1d6ff;strokeColor=#9673a6;gradientColor=none;" vertex="1" parent="1">
          <mxGeometry x="540" y="50" width="150" height="90" as="geometry" />
        </mxCell>
        <mxCell id="Xj3SYaBn1BzhPubmyHaP-40" style="edgeStyle=orthogonalEdgeStyle;rounded=0;orthogonalLoop=1;jettySize=auto;html=1;exitX=0.5;exitY=1;exitDx=0;exitDy=0;entryX=0.5;entryY=0;entryDx=0;entryDy=0;strokeWidth=2;endArrow=diamond;endFill=1;" edge="1" parent="1" source="Xj3SYaBn1BzhPubmyHaP-15" target="Xj3SYaBn1BzhPubmyHaP-27">
          <mxGeometry relative="1" as="geometry" />
        </mxCell>
        <mxCell id="Xj3SYaBn1BzhPubmyHaP-15" value="&lt;p style=&quot;margin:0px;margin-top:4px;text-align:center;&quot;&gt;&lt;b&gt;Ticket&lt;/b&gt;&lt;/p&gt;&lt;hr size=&quot;1&quot;&gt;&amp;nbsp;+vehicle: Vehicle&lt;br&gt;&amp;nbsp;+spot : Spot&lt;br&gt;&amp;nbsp;+ticketId : String&lt;br&gt;&amp;nbsp;+ entryTime : DateTime&amp;nbsp;&lt;br&gt;&lt;div style=&quot;height:2px;&quot;&gt;&amp;nbsp;+ exitTime : DateTime&amp;nbsp;&lt;br style=&quot;border-color: var(--border-color);&quot;&gt;&lt;/div&gt;" style="verticalAlign=top;align=left;overflow=fill;fontSize=12;fontFamily=Helvetica;html=1;whiteSpace=wrap;fillColor=#f5f5f5;fontColor=#333333;strokeColor=#666666;" vertex="1" parent="1">
          <mxGeometry x="230" y="110" width="140" height="120" as="geometry" />
        </mxCell>
        <mxCell id="Xj3SYaBn1BzhPubmyHaP-16" style="edgeStyle=orthogonalEdgeStyle;rounded=0;orthogonalLoop=1;jettySize=auto;html=1;exitX=0.5;exitY=1;exitDx=0;exitDy=0;" edge="1" parent="1" source="Xj3SYaBn1BzhPubmyHaP-15" target="Xj3SYaBn1BzhPubmyHaP-15">
          <mxGeometry relative="1" as="geometry" />
        </mxCell>
        <mxCell id="Xj3SYaBn1BzhPubmyHaP-20" style="edgeStyle=orthogonalEdgeStyle;rounded=0;orthogonalLoop=1;jettySize=auto;html=1;exitX=0;exitY=0.5;exitDx=0;exitDy=0;entryX=0.45;entryY=-0.008;entryDx=0;entryDy=0;entryPerimeter=0;strokeWidth=2;endArrow=diamond;endFill=1;" edge="1" parent="1" source="Xj3SYaBn1BzhPubmyHaP-12" target="Xj3SYaBn1BzhPubmyHaP-15">
          <mxGeometry relative="1" as="geometry">
            <Array as="points">
              <mxPoint x="540" y="90" />
              <mxPoint x="293" y="90" />
            </Array>
          </mxGeometry>
        </mxCell>
        <mxCell id="Xj3SYaBn1BzhPubmyHaP-21" value="1" style="text;html=1;align=center;verticalAlign=middle;resizable=0;points=[];autosize=1;strokeColor=none;fillColor=none;" vertex="1" parent="1">
          <mxGeometry x="265" y="68" width="30" height="30" as="geometry" />
        </mxCell>
        <mxCell id="Xj3SYaBn1BzhPubmyHaP-22" value="1" style="text;html=1;align=center;verticalAlign=middle;resizable=0;points=[];autosize=1;strokeColor=none;fillColor=none;" vertex="1" parent="1">
          <mxGeometry x="510" y="60" width="30" height="30" as="geometry" />
        </mxCell>
        <mxCell id="Xj3SYaBn1BzhPubmyHaP-24" value="1" style="text;html=1;align=center;verticalAlign=middle;resizable=0;points=[];autosize=1;strokeColor=none;fillColor=none;" vertex="1" parent="1">
          <mxGeometry x="370" y="140" width="30" height="30" as="geometry" />
        </mxCell>
        <mxCell id="Xj3SYaBn1BzhPubmyHaP-25" value="1" style="text;html=1;align=center;verticalAlign=middle;resizable=0;points=[];autosize=1;strokeColor=none;fillColor=none;" vertex="1" parent="1">
          <mxGeometry x="765" y="140" width="30" height="30" as="geometry" />
        </mxCell>
        <mxCell id="Xj3SYaBn1BzhPubmyHaP-47" style="edgeStyle=orthogonalEdgeStyle;rounded=0;orthogonalLoop=1;jettySize=auto;html=1;exitX=0.5;exitY=1;exitDx=0;exitDy=0;entryX=0.5;entryY=0;entryDx=0;entryDy=0;strokeWidth=2;endArrow=diamond;endFill=1;" edge="1" parent="1" source="Xj3SYaBn1BzhPubmyHaP-27" target="Xj3SYaBn1BzhPubmyHaP-28">
          <mxGeometry relative="1" as="geometry">
            <Array as="points">
              <mxPoint x="205" y="440" />
            </Array>
          </mxGeometry>
        </mxCell>
        <mxCell id="Xj3SYaBn1BzhPubmyHaP-27" value="&lt;p style=&quot;margin:0px;margin-top:4px;text-align:center;&quot;&gt;&lt;b&gt;Invoice&lt;/b&gt;&lt;/p&gt;&lt;hr size=&quot;1&quot;&gt;&lt;p style=&quot;margin:0px;margin-left:4px;&quot;&gt;+ paymentMode: PaymentMode&lt;/p&gt;&lt;p style=&quot;margin:0px;margin-left:4px;&quot;&gt;+ isPaid : boolean&lt;/p&gt;&lt;p style=&quot;margin:0px;margin-left:4px;&quot;&gt;+ ticket : Ticket&lt;/p&gt;&lt;p style=&quot;margin:0px;margin-left:4px;&quot;&gt;+ invoiceId : String&lt;/p&gt;&lt;p style=&quot;margin:0px;margin-left:4px;&quot;&gt;+ amount : double&lt;/p&gt;&lt;hr size=&quot;1&quot;&gt;&lt;p style=&quot;margin:0px;margin-left:4px;&quot;&gt;&lt;br&gt;&lt;/p&gt;" style="verticalAlign=top;align=left;overflow=fill;fontSize=12;fontFamily=Helvetica;html=1;whiteSpace=wrap;fillColor=#d0cee2;strokeColor=#56517e;" vertex="1" parent="1">
          <mxGeometry x="110" y="330" width="185" height="110" as="geometry" />
        </mxCell>
        <mxCell id="Xj3SYaBn1BzhPubmyHaP-28" value="&lt;p style=&quot;margin:0px;margin-top:4px;text-align:center;&quot;&gt;&lt;i&gt;&amp;lt;&amp;lt;Abstract&amp;gt;&amp;gt;&lt;/i&gt;&lt;br&gt;&lt;b&gt;Payment&lt;/b&gt;&lt;/p&gt;&lt;hr size=&quot;1&quot;&gt;&lt;p style=&quot;margin:0px;margin-left:4px;&quot;&gt;+ paymentId: String&lt;br&gt;+ Invoice: Invoice&lt;/p&gt;&lt;p style=&quot;margin:0px;margin-left:4px;&quot;&gt;+ paymentMode : PaymentMode&lt;/p&gt;&lt;p style=&quot;margin:0px;margin-left:4px;&quot;&gt;+ paymentStatus: PaymentStatus&lt;/p&gt;&lt;p style=&quot;margin:0px;margin-left:4px;&quot;&gt;+ amount : double&lt;/p&gt;&lt;hr size=&quot;1&quot;&gt;&lt;p style=&quot;margin:0px;margin-left:4px;&quot;&gt;+ createPayment(Invoice, PaymentMode): Payment&lt;br&gt;+ executePayment(): void&lt;/p&gt;" style="verticalAlign=top;align=left;overflow=fill;fontSize=12;fontFamily=Helvetica;html=1;whiteSpace=wrap;fillColor=#f5f5f5;gradientColor=#b3b3b3;strokeColor=#666666;" vertex="1" parent="1">
          <mxGeometry x="110" y="500" width="190" height="190" as="geometry" />
        </mxCell>
        <mxCell id="Xj3SYaBn1BzhPubmyHaP-35" style="edgeStyle=orthogonalEdgeStyle;rounded=0;orthogonalLoop=1;jettySize=auto;html=1;exitX=0.5;exitY=0;exitDx=0;exitDy=0;entryX=0.5;entryY=1;entryDx=0;entryDy=0;" edge="1" parent="1" source="Xj3SYaBn1BzhPubmyHaP-32" target="Xj3SYaBn1BzhPubmyHaP-28">
          <mxGeometry relative="1" as="geometry" />
        </mxCell>
        <mxCell id="Xj3SYaBn1BzhPubmyHaP-32" value="PaymentCash" style="html=1;whiteSpace=wrap;fillColor=#ffff88;strokeColor=#36393d;" vertex="1" parent="1">
          <mxGeometry x="20" y="760" width="110" height="50" as="geometry" />
        </mxCell>
        <mxCell id="Xj3SYaBn1BzhPubmyHaP-37" style="edgeStyle=orthogonalEdgeStyle;rounded=0;orthogonalLoop=1;jettySize=auto;html=1;exitX=0.5;exitY=0;exitDx=0;exitDy=0;entryX=0.5;entryY=1;entryDx=0;entryDy=0;" edge="1" parent="1" source="Xj3SYaBn1BzhPubmyHaP-33" target="Xj3SYaBn1BzhPubmyHaP-28">
          <mxGeometry relative="1" as="geometry">
            <Array as="points">
              <mxPoint x="205" y="760" />
            </Array>
          </mxGeometry>
        </mxCell>
        <mxCell id="Xj3SYaBn1BzhPubmyHaP-33" value="PaymentUPI" style="html=1;whiteSpace=wrap;fillColor=#ffff88;strokeColor=#36393d;" vertex="1" parent="1">
          <mxGeometry x="147.5" y="760" width="110" height="50" as="geometry" />
        </mxCell>
        <mxCell id="Xj3SYaBn1BzhPubmyHaP-38" style="edgeStyle=orthogonalEdgeStyle;rounded=0;orthogonalLoop=1;jettySize=auto;html=1;exitX=0.5;exitY=0;exitDx=0;exitDy=0;entryX=0.5;entryY=1;entryDx=0;entryDy=0;" edge="1" parent="1" source="Xj3SYaBn1BzhPubmyHaP-34" target="Xj3SYaBn1BzhPubmyHaP-28">
          <mxGeometry relative="1" as="geometry" />
        </mxCell>
        <mxCell id="Xj3SYaBn1BzhPubmyHaP-34" value="PaymentCard" style="html=1;whiteSpace=wrap;fillColor=#ffff88;strokeColor=#36393d;" vertex="1" parent="1">
          <mxGeometry x="290" y="760" width="110" height="50" as="geometry" />
        </mxCell>
        <mxCell id="Xj3SYaBn1BzhPubmyHaP-43" value="&lt;p style=&quot;margin:0px;margin-top:4px;text-align:center;&quot;&gt;&lt;b&gt;Address&lt;/b&gt;&lt;/p&gt;&lt;hr size=&quot;1&quot;&gt;&lt;div style=&quot;height:2px;&quot;&gt;&amp;nbsp; -zipCode : String&lt;/div&gt;&lt;div style=&quot;height:2px;&quot;&gt;&lt;br&gt;&lt;/div&gt;&lt;div style=&quot;height:2px;&quot;&gt;&lt;br&gt;&lt;/div&gt;&lt;div style=&quot;height:2px;&quot;&gt;&lt;br&gt;&lt;/div&gt;&lt;div style=&quot;height:2px;&quot;&gt;&lt;br&gt;&lt;/div&gt;&lt;div style=&quot;height:2px;&quot;&gt;&lt;br&gt;&lt;/div&gt;&lt;div style=&quot;height:2px;&quot;&gt;&lt;br&gt;&lt;/div&gt;&lt;div style=&quot;height:2px;&quot;&gt;&lt;br&gt;&lt;/div&gt;&lt;div style=&quot;height:2px;&quot;&gt;&amp;nbsp; -city : String&lt;/div&gt;&lt;div style=&quot;height:2px;&quot;&gt;&lt;br&gt;&lt;/div&gt;&lt;div style=&quot;height:2px;&quot;&gt;&lt;br&gt;&lt;/div&gt;&lt;div style=&quot;height:2px;&quot;&gt;&lt;br&gt;&lt;/div&gt;&lt;div style=&quot;height:2px;&quot;&gt;&amp;nbsp;&amp;nbsp;&lt;/div&gt;&lt;div style=&quot;height:2px;&quot;&gt;&lt;br&gt;&lt;/div&gt;&lt;div style=&quot;height:2px;&quot;&gt;&amp;nbsp;&amp;nbsp;&lt;/div&gt;&lt;div style=&quot;height:2px;&quot;&gt;&lt;br&gt;&lt;/div&gt;&lt;div style=&quot;height:2px;&quot;&gt;&amp;nbsp; -street : String&lt;/div&gt;&lt;div style=&quot;height:2px;&quot;&gt;&lt;br&gt;&lt;/div&gt;&lt;div style=&quot;height:2px;&quot;&gt;&lt;br&gt;&lt;/div&gt;&lt;div style=&quot;height:2px;&quot;&gt;&lt;br&gt;&lt;/div&gt;&lt;div style=&quot;height:2px;&quot;&gt;&lt;br&gt;&lt;/div&gt;&lt;div style=&quot;height:2px;&quot;&gt;&amp;nbsp;&amp;nbsp;&lt;/div&gt;&lt;div style=&quot;height:2px;&quot;&gt;&amp;nbsp;&amp;nbsp;&lt;/div&gt;&lt;div style=&quot;height:2px;&quot;&gt;&lt;br&gt;&lt;/div&gt;&lt;div style=&quot;height:2px;&quot;&gt;&amp;nbsp; -state : String&lt;/div&gt;&lt;div style=&quot;height:2px;&quot;&gt;&lt;br&gt;&lt;/div&gt;&lt;div style=&quot;height:2px;&quot;&gt;&lt;br&gt;&lt;/div&gt;&lt;div style=&quot;height:2px;&quot;&gt;&lt;br&gt;&lt;/div&gt;&lt;div style=&quot;height:2px;&quot;&gt;&lt;br&gt;&lt;/div&gt;&lt;div style=&quot;height:2px;&quot;&gt;&lt;br&gt;&lt;/div&gt;&lt;div style=&quot;height:2px;&quot;&gt;&lt;br&gt;&lt;/div&gt;&lt;div style=&quot;height:2px;&quot;&gt;&amp;nbsp;&amp;nbsp;&lt;/div&gt;&lt;div style=&quot;height:2px;&quot;&gt;&amp;nbsp; -country : String&lt;/div&gt;" style="verticalAlign=top;align=left;overflow=fill;fontSize=12;fontFamily=Helvetica;html=1;whiteSpace=wrap;fillColor=#fff2cc;strokeColor=#d6b656;" vertex="1" parent="1">
          <mxGeometry x="530" y="650" width="140" height="110" as="geometry" />
        </mxCell>
        <mxCell id="Xj3SYaBn1BzhPubmyHaP-48" style="edgeStyle=orthogonalEdgeStyle;rounded=0;orthogonalLoop=1;jettySize=auto;html=1;exitX=0.5;exitY=0;exitDx=0;exitDy=0;entryX=0;entryY=0.5;entryDx=0;entryDy=0;strokeWidth=2;endArrow=diamond;endFill=1;" edge="1" parent="1" source="Xj3SYaBn1BzhPubmyHaP-46" target="Xj3SYaBn1BzhPubmyHaP-1">
          <mxGeometry relative="1" as="geometry" />
        </mxCell>
        <mxCell id="Xj3SYaBn1BzhPubmyHaP-46" value="&lt;p style=&quot;margin:0px;margin-top:4px;text-align:center;&quot;&gt;&lt;b&gt;PaymentCenter&lt;/b&gt;&lt;/p&gt;&lt;hr size=&quot;1&quot;&gt;&lt;p style=&quot;margin:0px;margin-left:4px;&quot;&gt;+ totalRevenue: double&lt;/p&gt;&lt;hr size=&quot;1&quot;&gt;&lt;p style=&quot;margin:0px;margin-left:4px;&quot;&gt;+ generateInvoice(): Invoice&lt;/p&gt;&lt;p style=&quot;margin:0px;margin-left:4px;&quot;&gt;+ payInvoice() : Payment&lt;/p&gt;" style="verticalAlign=top;align=left;overflow=fill;fontSize=12;fontFamily=Helvetica;html=1;whiteSpace=wrap;fillColor=#d5e8d4;strokeColor=#82b366;" vertex="1" parent="1">
          <mxGeometry x="330" y="580" width="170" height="100" as="geometry" />
        </mxCell>
        <mxCell id="Xj3SYaBn1BzhPubmyHaP-49" value="1" style="text;html=1;align=center;verticalAlign=middle;resizable=0;points=[];autosize=1;strokeColor=none;fillColor=none;" vertex="1" parent="1">
          <mxGeometry x="365" y="548" width="30" height="30" as="geometry" />
        </mxCell>
        <mxCell id="Xj3SYaBn1BzhPubmyHaP-50" value="1" style="text;html=1;align=center;verticalAlign=middle;resizable=0;points=[];autosize=1;strokeColor=none;fillColor=none;" vertex="1" parent="1">
          <mxGeometry x="465" y="398" width="30" height="30" as="geometry" />
        </mxCell>
      </root>
    </mxGraphModel>
  </diagram>
</mxfile>
